<?xml version="1.0" encoding="utf-8"?>
<!-- Generator: Adobe Illustrator 25.1.0, SVG Export Plug-In . SVG Version: 6.00 Build 0)  -->
<svg version="1.1" id="Layer_1" xmlns="http://www.w3.org/2000/svg" xmlns:xlink="http://www.w3.org/1999/xlink" x="0px" y="0px"
	 viewBox="0 0 283.5 283.5" style="enable-background:new 0 0 283.5 283.5;" xml:space="preserve">
<style type="text/css">
	.st0{fill:#0D00F6;stroke:#FFFFFF;stroke-width:2;stroke-miterlimit:10;}
</style>
<g>
	<path class="st0" d="M132.3,192.8L132.3,192.8c-6.8,2.7-14.5-0.7-17.2-7.5L58.9,41.7c-2.7-6.8,0.7-14.5,7.5-17.2l0,0
		c6.8-2.7,14.5,0.7,17.2,7.5l56.2,143.6C142.4,182.5,139.1,190.1,132.3,192.8z"/>
	<path class="st0" d="M215,258.9L215,258.9c-6.7,2.6-14.3-0.6-16.9-7.2L144.1,114c-2.6-6.6,0.8-14.1,7.5-16.8l0,0
		c6.7-2.6,14.3,0.6,16.9,7.2l54.1,137.7C225.2,248.8,221.8,256.3,215,258.9z"/>
	<path class="st0" d="M232.1,145L232.1,145c0,7.3-5.9,13.2-13.2,13.2H64.6c-7.3,0-13.2-5.9-13.2-13.2l0,0c0-7.3,5.9-13.2,13.2-13.2
		h154.2C226.2,131.8,232.1,137.7,232.1,145z"/>
	<path class="st0" d="M161.3,195.1L161.3,195.1c-6.8,2.7-14.5-0.7-17.2-7.5l-29.6-75.5c-2.7-6.8,0.7-14.5,7.5-17.2l0,0
		c6.8-2.7,14.5,0.7,17.2,7.5l29.6,75.5C171.5,184.7,168.1,192.4,161.3,195.1z"/>
</g>
</svg>
